<?xml version="1.0" encoding="UTF-8"?>
<svg width="19px" height="19px" viewBox="0 0 19 19" version="1.1" xmlns="http://www.w3.org/2000/svg" xmlns:xlink="http://www.w3.org/1999/xlink">
    <!-- Generator: Sketch 55.1 (78136) - https://sketchapp.com -->
    <title>phone-solid</title>
    <desc>Created with Sketch.</desc>
    <g id="Logos---Icons" stroke="none" stroke-width="1" fill="none" fill-rule="evenodd">
        <g id="Icons" transform="translate(-154.000000, -468.000000)" fill="#000000" fill-rule="nonzero">
            <g id="phone-solid" transform="translate(154.675000, 468.100000)">
                <path d="M17.3955863,0.914665631 L13.7394106,0.0709327952 C13.3421531,-0.0204715954 12.9343489,0.18694606 12.7726334,0.559594729 L11.0851678,4.49701463 C10.9375145,4.84153887 11.03595,5.24582752 11.327741,5.4813696 L13.4581664,7.22508413 C12.1925671,9.92151365 9.98128397,12.1644368 7.22860559,13.4546449 L5.48489107,11.3242195 C5.24583343,11.0324286 4.84506033,10.9339931 4.50053609,11.0816463 L0.563116191,12.769112 C0.186951969,12.934343 -0.0204656866,13.3421472 0.070938704,13.7394047 L0.91467154,17.3955804 C1.00256038,17.7752601 1.34005351,18.0494733 1.73731105,18.0494733 C10.7406435,18.0494733 18.0494792,10.7546998 18.0494792,1.73730515 C18.0494792,1.34356316 17.7787816,1.00255447 17.3955863,0.914665631 Z" id="Path"></path>
            </g>
        </g>
    </g>
</svg>